<?xml version="1.0" standalone="no"?>
<!DOCTYPE svg PUBLIC "-//W3C//DTD SVG 20010904//EN"
 "http://www.w3.org/TR/2001/REC-SVG-20010904/DTD/svg10.dtd">
<svg version="1.0" xmlns="http://www.w3.org/2000/svg"
 width="720.000000pt" height="721.000000pt" viewBox="0 0 720.000000 721.000000"
 preserveAspectRatio="xMidYMid meet">

<g transform="translate(0.000000,721.000000) scale(0.100000,-0.100000)"
fill="#000000" stroke="none">
<path d="M0 5570 l0 -1641 56 -25 c31 -14 63 -31 71 -39 8 -8 19 -15 25 -15 5
0 37 -13 71 -29 73 -34 173 -76 204 -86 13 -3 23 -11 23 -16 0 -5 9 -9 20 -9
11 0 20 -5 20 -11 0 -7 -10 -9 -27 -4 -16 4 -67 9 -115 12 -78 4 -88 7 -88 24
0 14 -22 30 -84 59 -46 22 -90 40 -97 40 -8 0 -23 7 -33 15 -11 8 -26 15 -33
15 -10 0 -13 -367 -13 -1930 l0 -1930 585 0 585 0 0 24 c0 14 -4 27 -9 30 -7
5 -8 49 -2 98 2 14 109 80 119 74 6 -3 13 -30 17 -59 9 -63 13 -71 30 -57 13
11 10 91 -6 122 -5 9 -4 29 2 48 6 17 9 33 7 35 -2 2 -42 -20 -88 -50 -47 -30
-88 -55 -91 -55 -14 0 13 183 33 223 10 19 107 72 116 62 3 -3 1 -20 -6 -37
-15 -40 -10 -44 27 -22 30 18 49 15 36 -6 -7 -11 -105 -70 -118 -70 -4 0 -4 8
1 18 5 9 12 29 16 45 8 34 -17 38 -38 4 -18 -27 -30 -127 -15 -127 5 0 43 18
83 40 72 40 93 43 77 11 -5 -9 -4 -27 1 -41 11 -27 21 -87 22 -137 1 -17 4
-29 7 -27 4 2 9 -6 13 -18 7 -30 -20 -58 -90 -92 -31 -15 -57 -26 -59 -24 -3
3 -13 86 -14 122 -1 14 -4 16 -15 7 -14 -12 -15 -108 -2 -130 8 -13 120 -15
144 -2 34 17 72 22 70 9 -2 -10 111 -13 558 -15 510 -2 563 -1 575 14 13 15
12 15 -9 4 -32 -17 -40 -6 -16 21 15 17 15 20 2 9 -28 -21 -39 -10 -24 24 60
133 76 177 71 185 -3 5 -1 11 4 14 5 3 9 26 9 51 -1 25 4 51 10 57 7 7 12 19
12 27 0 9 7 29 15 44 10 21 11 27 2 25 -6 -3 -16 -14 -22 -26 -9 -21 -33 -37
-42 -29 -2 3 17 28 42 58 41 49 59 99 35 99 -6 0 -9 -5 -8 -12 2 -6 -6 -13
-17 -15 -15 -3 -17 -2 -6 5 8 6 10 15 6 22 -5 8 -4 11 2 7 6 -4 19 1 30 11 10
9 12 13 4 7 -11 -8 -13 -6 -9 5 2 8 18 16 34 17 16 2 36 3 44 4 8 1 27 10 42
21 15 10 52 24 82 30 59 13 90 4 129 -35 18 -17 17 -20 -50 -82 l-68 -64 85
30 c77 27 175 40 217 27 6 -2 20 8 32 22 21 24 22 24 16 3 -7 -26 7 -30 25 -8
10 12 16 13 26 4 11 -9 14 -7 14 10 0 11 4 21 9 21 17 0 18 -25 4 -54 -8 -15
-10 -25 -4 -22 11 7 14 -14 13 -74 l-1 -25 7 24 c10 34 32 39 32 7 0 -13 -5
-28 -10 -31 -5 -3 -10 -12 -10 -18 0 -7 11 0 24 14 29 34 66 47 66 24 0 -10 5
-13 13 -9 8 5 7 2 -2 -9 -8 -10 -12 -20 -9 -22 9 -9 38 7 38 20 0 8 8 11 19 8
18 -5 18 -6 3 -33 -25 -43 -6 -48 34 -9 28 26 35 29 30 14 -5 -16 -1 -21 14
-22 13 -1 18 2 14 10 -4 7 -3 9 1 4 5 -4 10 -16 12 -27 2 -14 -6 -22 -30 -29
-28 -8 -30 -10 -11 -16 15 -5 21 -15 21 -35 0 -16 -4 -27 -9 -24 -4 3 -8 0 -8
-6 0 -7 6 -10 12 -7 7 2 13 12 13 22 0 10 6 20 14 23 8 3 11 0 7 -7 -4 -6 0
-12 8 -12 19 -2 26 -4 48 -13 16 -7 16 -9 -3 -29 -20 -22 -9 -37 14 -19 7 5
20 12 29 15 15 5 16 4 6 -13 -7 -10 -17 -16 -23 -13 -5 3 -4 0 3 -8 9 -10 15
-10 24 -1 7 7 17 12 22 12 6 0 0 -7 -12 -16 -12 -8 -20 -20 -16 -25 4 -6 13
-4 24 6 12 11 20 13 25 6 13 -21 34 -10 96 48 57 55 64 58 93 50 17 -5 46 -9
65 -9 33 0 33 -1 17 -19 -9 -10 -54 -38 -99 -61 -45 -24 -100 -54 -122 -68
-22 -14 -87 -49 -145 -78 l-105 -53 128 -1 c78 0 137 5 150 11 12 7 74 47 138
89 63 43 124 80 135 84 10 3 35 19 54 36 44 38 70 38 131 -2 l49 -32 -26 -27
c-14 -15 -37 -30 -51 -34 -28 -7 -131 -101 -121 -110 10 -10 40 2 70 27 14 13
68 52 118 87 57 40 87 67 79 70 -25 10 -94 58 -107 74 -12 14 -7 20 40 44 29
15 61 31 71 35 32 13 124 80 202 146 51 44 69 46 129 18 31 -15 56 -32 56 -39
0 -7 -37 -35 -82 -62 -78 -48 -106 -75 -76 -75 17 0 230 132 235 145 1 6 -14
18 -35 28 -21 10 -52 29 -67 41 l-29 23 45 28 c24 15 55 37 69 50 14 12 41 28
60 35 19 7 44 21 55 30 32 27 124 80 139 80 7 0 28 -10 47 -23 19 -13 43 -26
53 -30 17 -7 18 -10 5 -22 -8 -7 -36 -25 -64 -40 -63 -35 -72 -43 -54 -50 8
-3 52 17 97 44 46 27 88 52 95 55 16 6 -25 38 -91 71 -29 14 -50 30 -46 36 3
6 36 25 72 43 37 18 97 54 135 79 37 26 74 47 82 47 9 0 43 -14 78 -31 68 -35
69 -29 -12 -82 -34 -22 -52 -47 -33 -47 5 0 24 11 43 24 19 14 53 35 77 47 40
21 54 39 31 39 -22 0 -139 63 -139 75 0 11 139 115 154 115 3 0 28 14 56 31
l51 31 44 -17 c25 -9 54 -24 65 -33 20 -17 20 -18 -31 -51 -31 -20 -47 -37
-42 -42 9 -9 141 68 142 82 1 3 -29 21 -66 40 -38 18 -70 35 -72 36 -3 2 6 15
20 29 22 21 29 23 52 15 15 -6 27 -15 27 -21 0 -6 33 -27 74 -47 41 -20 73
-40 71 -44 -3 -3 -36 -25 -73 -47 -38 -23 -88 -57 -112 -77 -47 -40 -64 -42
-117 -18 -57 26 -75 43 -62 60 6 7 16 13 21 13 5 0 25 11 45 25 27 18 33 26
22 30 -13 5 -39 -7 -127 -60 -46 -27 -46 -27 -11 -46 78 -40 119 -59 129 -59
32 0 -28 -49 -97 -79 -11 -5 -24 -14 -27 -20 -8 -12 -85 -65 -127 -86 -28 -15
-33 -14 -94 14 -36 17 -65 34 -65 39 0 13 28 33 82 62 38 19 44 26 32 33 -19
11 -68 -8 -108 -41 -17 -13 -41 -28 -54 -33 l-25 -10 21 -19 c11 -11 32 -22
46 -26 14 -3 30 -12 37 -20 6 -8 20 -14 30 -14 30 0 31 -17 3 -39 -15 -12 -31
-21 -36 -21 -5 0 -44 -22 -87 -50 -43 -27 -83 -50 -88 -50 -6 0 -27 -13 -48
-30 -49 -39 -72 -45 -94 -26 -10 9 -22 16 -27 16 -19 0 -64 25 -64 35 0 6 34
30 75 55 41 25 75 48 75 53 0 17 -36 5 -80 -27 -26 -19 -73 -46 -104 -61 -31
-15 -56 -30 -56 -34 0 -3 33 -22 73 -41 39 -19 72 -39 72 -45 0 -10 -73 -62
-155 -110 -28 -16 -97 -58 -153 -92 -94 -58 -103 -61 -122 -48 -11 9 -30 19
-42 24 -47 21 -34 54 33 86 19 9 34 19 34 23 0 4 14 16 30 25 17 10 30 22 30
28 0 22 -36 5 -119 -55 -49 -35 -99 -67 -110 -71 -23 -7 -29 -35 -8 -35 7 0
19 -6 26 -12 6 -7 15 -13 19 -13 15 -1 62 -38 62 -49 0 -7 -53 -49 -117 -94
-65 -44 -129 -90 -143 -101 l-25 -21 1478 0 1477 0 0 3605 0 3605 -1409 0
c-932 0 -1412 -3 -1416 -10 -4 -7 -12 -7 -25 0 -12 7 -639 10 -1831 10 l-1813
0 44 -41 c54 -48 51 -45 121 -117 31 -31 61 -66 67 -77 27 -52 -48 -82 -111
-45 -20 12 -37 26 -37 30 0 5 -8 11 -19 15 -18 5 -61 40 -111 90 -14 14 -30
25 -36 25 -5 0 -22 12 -37 28 -15 15 -40 41 -57 57 l-30 30 -250 3 -250 3 0
-1641z m3113 1609 c-16 -15 -63 -14 -63 1 0 5 16 9 35 8 20 -1 32 -5 28 -9z
m904 -15 c-16 -9 -35 -13 -43 -10 -26 10 -4 26 34 26 l37 -1 -28 -15z m83 -34
c0 -11 -8 -23 -17 -26 -18 -6 -35 -12 -86 -33 -15 -6 -40 -11 -55 -11 l-27 0
30 16 c16 8 38 23 48 32 18 16 70 38 95 41 6 0 12 -8 12 -19z m257 3 c-9 -8
-24 -11 -84 -20 -24 -3 -43 -10 -43 -15 0 -5 5 -6 11 -2 16 10 -6 -29 -26 -46
-14 -11 -18 -11 -25 0 -4 7 -15 10 -24 7 -9 -4 -16 -2 -16 4 0 5 7 12 15 15
20 8 9 24 -18 25 -12 1 2 9 33 19 54 17 191 28 177 13z m-728 -39 c19 12 12
-13 -9 -34 -24 -24 -25 -33 -5 -50 22 -18 18 -46 -9 -73 -14 -14 -23 -27 -20
-29 2 -3 -5 -13 -16 -23 -11 -10 -20 -24 -20 -31 0 -7 -6 -11 -14 -8 -9 3 -17
-3 -21 -15 -3 -12 -10 -21 -14 -21 -5 0 -15 -14 -22 -32 -7 -18 -21 -40 -31
-50 -10 -10 -18 -22 -18 -26 0 -4 -18 -13 -40 -18 -32 -9 -40 -8 -45 3 -10 26
-5 54 10 59 8 4 15 13 15 21 0 9 -6 13 -14 10 -8 -3 -17 -1 -19 6 -2 7 -12 2
-25 -13 -17 -20 -21 -22 -22 -8 0 9 -7 21 -16 26 -12 6 -15 19 -11 44 6 44 14
58 33 58 9 0 14 10 14 28 0 41 13 53 61 59 42 6 43 5 26 -11 -10 -10 -24 -15
-32 -12 -11 4 -15 -2 -15 -27 1 -31 1 -31 16 -12 8 11 20 19 25 18 5 -2 9 4 9
12 0 8 7 15 15 15 28 0 16 30 -12 31 l-28 2 26 4 c16 2 29 12 32 24 3 11 9 18
14 17 4 -1 18 3 31 10 12 7 27 10 32 7 6 -3 10 -1 10 5 0 6 4 9 9 6 4 -3 23 6
41 19 23 17 36 21 41 14 4 -6 12 -8 18 -5z m700 -83 c-15 -33 -24 -38 -35 -20
-4 8 -9 8 -13 1 -6 -11 -127 -20 -136 -11 -2 3 -2 15 2 27 4 17 9 19 22 12 12
-6 26 -4 44 5 19 10 27 10 30 2 3 -9 16 -8 48 4 24 9 46 15 48 13 2 -1 -3 -17
-10 -33z m-359 -106 c0 -8 -5 -15 -11 -15 -6 0 -9 -6 -6 -12 2 -7 -9 -26 -25
-41 -16 -16 -27 -35 -24 -42 3 -8 -11 -17 -40 -25 -30 -9 -41 -16 -33 -21 10
-6 5 -11 -15 -18 -15 -6 -32 -9 -37 -5 -5 3 -9 -2 -9 -11 0 -8 -7 -18 -15 -21
-8 -4 -15 -12 -15 -18 0 -7 -13 -25 -29 -40 -16 -16 -28 -33 -25 -40 4 -11
-37 -66 -50 -66 -3 0 -7 10 -7 23 -1 16 -2 18 -6 5 -3 -13 -12 -17 -36 -14
-18 2 -39 -1 -47 -7 -8 -7 -6 -1 5 12 11 13 19 26 17 29 -2 4 2 8 10 10 9 2 8
0 -2 -8 -13 -10 -13 -11 0 -7 8 2 14 12 12 22 -3 13 1 16 12 12 15 -6 18 -3
20 26 1 6 10 15 21 18 11 3 19 11 18 17 -2 7 4 12 13 12 9 0 12 5 8 13 -5 8
-2 8 9 -2 15 -12 17 -11 17 2 0 11 5 14 17 10 12 -5 15 -2 10 10 -3 9 0 23 8
31 8 8 15 19 15 25 0 6 8 11 17 11 9 0 14 3 10 6 -8 9 60 88 100 115 31 21 93
23 93 4z m258 -2 c-10 -2 -18 -9 -18 -14 0 -5 -7 -9 -15 -9 -8 0 -15 -4 -15
-9 0 -5 7 -11 15 -15 22 -8 18 -23 -6 -29 -12 -3 -18 -10 -14 -17 4 -6 2 -17
-4 -23 -5 -7 -8 -23 -4 -35 4 -18 8 -20 19 -11 10 8 14 8 14 0 0 -6 -11 -13
-25 -17 -14 -3 -25 -11 -25 -17 0 -6 3 -7 7 -4 9 9 33 -12 33 -29 0 -8 -6 -11
-15 -8 -9 4 -15 0 -15 -10 0 -9 -8 -16 -20 -16 -11 0 -20 -4 -20 -10 0 -5 10
-9 23 -8 40 2 57 -2 57 -12 0 -18 42 -59 56 -53 8 3 12 8 10 12 -2 3 6 7 19 7
23 2 23 -1 22 -62 -1 -45 -6 -64 -15 -64 -7 0 -11 4 -8 9 7 11 -28 21 -54 14
-19 -5 -17 -8 16 -30 27 -19 38 -22 44 -13 5 8 17 10 33 6 16 -4 27 -1 30 7 9
25 21 -4 21 -53 1 -39 5 -52 19 -56 9 -3 15 -9 12 -14 -3 -5 4 -25 16 -45 17
-28 24 -33 35 -24 7 6 19 7 26 3 7 -4 10 -4 6 1 -4 4 -1 14 7 21 16 16 65 9
65 -9 0 -6 7 -2 14 9 14 17 15 15 13 -26 -2 -41 0 -45 21 -44 12 0 22 0 22 -1
0 -1 -7 -16 -16 -34 -9 -17 -13 -38 -10 -46 3 -8 1 -17 -4 -20 -16 -10 -11
-28 5 -22 8 4 17 2 20 -3 4 -6 -1 -10 -9 -10 -20 0 -20 -7 -1 -26 13 -14 15
-14 15 0 0 12 5 14 24 7 16 -7 28 -5 40 5 9 8 12 9 7 3 -5 -6 -7 -17 -5 -24 3
-7 1 -16 -5 -20 -16 -9 -13 -28 3 -22 8 3 16 -2 19 -15 5 -17 11 -19 39 -13
20 4 28 3 20 -3 -7 -5 -10 -16 -6 -26 5 -12 1 -19 -15 -23 -21 -5 -30 -33 -11
-33 6 0 10 4 10 9 0 4 12 6 26 3 15 -3 21 -8 15 -12 -7 -3 -9 -14 -6 -22 4
-10 -1 -17 -14 -21 -29 -7 -26 -25 4 -22 17 2 26 -3 30 -16 4 -10 11 -19 17
-19 5 0 8 7 4 15 -3 8 0 15 6 15 6 0 26 11 44 25 24 19 32 21 27 9 -5 -13 -2
-15 17 -9 17 6 21 4 14 -6 -12 -20 -15 -49 -6 -49 12 0 52 39 52 50 0 6 0 13
-1 17 0 4 7 10 16 13 9 3 17 10 18 15 1 15 20 32 45 39 28 9 28 2 -3 -39 -19
-24 -23 -35 -13 -39 10 -5 10 -7 1 -12 -7 -3 -13 -12 -13 -19 0 -7 -7 -16 -16
-19 -10 -4 -14 -12 -10 -22 4 -10 -3 -25 -19 -40 -24 -23 -25 -24 -6 -24 12 0
21 -5 21 -11 0 -6 -7 -8 -17 -4 -14 5 -15 3 -6 -6 6 -6 9 -18 6 -27 -4 -10 -2
-13 5 -8 8 5 12 0 12 -13 0 -28 36 -28 59 0 14 18 23 20 63 14 38 -6 45 -10
41 -26 -3 -10 -9 -19 -14 -19 -5 0 -9 -4 -9 -10 0 -5 6 -7 14 -4 8 3 30 6 50
8 25 1 41 10 58 31 19 24 20 28 4 22 -12 -5 -16 -3 -13 5 2 7 11 12 20 12 9
-1 15 2 12 6 -3 5 1 11 7 13 9 4 8 6 -2 6 -8 0 -26 -8 -40 -19 -33 -26 -41
-25 -38 3 4 30 70 107 91 107 10 0 17 6 17 13 0 6 9 1 19 -12 12 -16 24 -22
35 -18 10 4 15 11 11 16 -3 5 -1 12 4 15 5 4 12 2 16 -4 4 -6 15 -4 30 6 14 9
32 13 41 10 14 -5 15 -4 5 8 -18 21 -4 40 15 21 9 -8 24 -15 35 -15 11 0 19
-7 19 -16 0 -11 7 -14 29 -11 15 3 35 1 42 -5 11 -7 9 -8 -5 -6 -12 2 -24 -5
-31 -18 -5 -11 -16 -19 -24 -16 -8 3 -12 -1 -9 -9 3 -8 13 -13 22 -13 29 3 17
-13 -16 -21 -18 -5 -37 -9 -43 -9 -18 -2 -35 -17 -30 -26 3 -5 1 -11 -5 -15
-5 -3 -10 -16 -10 -29 0 -12 -11 -37 -25 -56 -14 -19 -25 -42 -25 -52 0 -9
-18 -36 -40 -58 -22 -22 -40 -45 -40 -50 0 -6 -3 -10 -7 -10 -5 -1 -26 -17
-48 -36 l-40 -36 30 8 c17 4 32 11 33 16 2 4 12 8 22 8 10 0 33 19 51 43 18
23 45 54 60 69 14 16 29 41 32 56 3 16 17 36 30 45 23 15 24 15 23 -11 -1 -15
4 -26 10 -25 6 1 9 -10 6 -28 -4 -27 10 -40 22 -20 3 5 19 11 36 13 35 5 56
-13 44 -39 -9 -20 -11 -30 -13 -54 0 -9 -14 -32 -31 -50 -16 -19 -30 -38 -30
-42 0 -5 -18 -26 -40 -48 -22 -22 -38 -45 -34 -50 3 -5 -8 -14 -25 -20 -17 -6
-31 -15 -31 -20 0 -5 -3 -8 -7 -8 -26 4 -43 -3 -43 -18 0 -13 -2 -15 -8 -5 -7
9 -15 6 -36 -13 -22 -21 -25 -29 -16 -40 6 -8 9 -23 5 -35 -5 -16 -2 -20 14
-20 24 0 44 -31 35 -54 -4 -10 -1 -16 7 -16 9 0 10 -3 3 -8 -6 -4 -14 -24 -17
-44 -4 -29 -2 -40 11 -48 16 -9 16 -9 0 -10 -11 0 -18 -8 -18 -20 0 -11 4 -20
9 -20 15 0 25 -42 11 -50 -6 -4 -12 -23 -13 -43 -1 -20 -5 -37 -9 -37 -4 0 -3
-11 1 -23 11 -27 7 -80 -7 -117 -5 -14 -6 -35 -1 -47 6 -16 4 -25 -7 -31 -8
-4 -16 -18 -19 -30 -2 -12 -6 -26 -10 -31 -3 -5 -1 -12 4 -16 6 -3 7 -13 4
-22 -4 -11 -3 -14 5 -9 7 4 12 14 12 22 0 9 5 24 10 35 10 17 13 18 44 5 37
-15 79 -4 105 28 27 33 91 57 148 57 110 0 162 -55 183 -193 23 -161 7 -300
-50 -417 -17 -35 -42 -91 -54 -125 -49 -128 -130 -277 -209 -382 -71 -94 -90
-112 -142 -138 -53 -27 -71 -31 -153 -32 -51 -1 -95 -4 -97 -6 -2 -2 -6 -16
-9 -31 -2 -14 -7 -31 -11 -37 -3 -5 -12 -40 -20 -77 -8 -38 -23 -99 -34 -137
-18 -60 -30 -128 -45 -261 -6 -50 -31 -163 -52 -235 -8 -30 -17 -66 -19 -80
-2 -14 -9 -49 -15 -79 -15 -73 -11 -81 50 -81 34 0 49 -4 44 -11 -3 -6 -28 -9
-57 -7 -49 3 -51 2 -59 -27 -12 -41 -16 -65 -23 -168 -6 -92 0 -105 33 -66 32
38 158 129 179 129 11 0 28 -9 38 -20 17 -19 17 -21 -1 -42 -16 -18 -16 -20
-2 -15 22 8 30 -3 15 -21 -9 -12 -9 -16 1 -19 6 -3 12 -13 12 -24 0 -12 7 -19
19 -19 16 0 19 -11 26 -92 7 -93 20 -129 60 -158 11 -8 28 -13 37 -12 11 2 18
-5 20 -20 2 -15 11 -24 26 -26 12 -2 20 -7 17 -11 -2 -5 6 -21 19 -36 13 -15
32 -52 41 -80 9 -32 28 -64 46 -80 30 -26 31 -26 36 -6 8 33 32 29 151 -26 28
-14 52 -27 52 -29 0 -17 -36 -54 -63 -65 -18 -7 -48 -23 -67 -36 -19 -13 -43
-23 -52 -23 -10 0 -18 -4 -18 -8 0 -12 -94 -62 -116 -62 -11 0 -34 -14 -53
-30 -18 -17 -40 -30 -47 -30 -8 0 -14 -6 -14 -13 0 -7 -13 -21 -30 -30 -17
-10 -30 -13 -30 -8 0 6 -9 11 -21 11 -13 0 -19 5 -16 13 3 9 -13 12 -62 11
-36 0 -60 1 -53 4 7 2 17 12 22 23 10 18 9 18 -17 7 -15 -7 -34 -17 -42 -22
-11 -8 -13 -8 -7 2 4 6 3 12 -3 12 -5 0 -13 -5 -16 -10 -3 -6 -12 -10 -18 -10
-7 0 -6 4 3 10 9 6 10 10 3 10 -6 0 -14 -4 -17 -9 -7 -11 -76 -20 -76 -9 0 4
8 12 18 17 15 9 13 10 -8 8 -16 -1 -24 3 -23 11 2 6 -4 12 -12 12 -22 0 11 52
52 80 18 12 30 26 27 31 -3 5 -1 9 5 9 5 0 22 11 36 24 l26 24 -20 41 c-15 32
-17 49 -11 72 6 21 5 31 -3 34 -39 12 -42 13 -24 14 18 1 25 41 6 41 -5 0 -7
-4 -4 -10 3 -6 -4 -10 -17 -10 -13 0 -29 -5 -36 -12 -9 -9 -12 -8 -12 5 0 9 5
17 10 17 6 0 10 5 10 12 0 7 -7 5 -17 -5 -10 -8 -40 -18 -68 -22 -27 -4 -59
-12 -70 -18 -18 -9 -19 -9 -6 6 7 10 21 17 31 17 9 0 22 10 29 22 7 13 36 39
64 58 38 26 53 43 58 67 4 21 3 31 -5 30 -6 -1 -10 4 -8 12 2 7 -5 22 -14 32
-10 11 -12 19 -6 19 7 0 12 5 12 10 0 6 -8 10 -17 10 -15 0 -14 2 3 15 19 14
19 14 -3 15 -21 0 -25 13 -10 38 5 8 2 12 -8 12 -11 0 -15 5 -11 15 3 10 -1
15 -11 15 -9 0 -21 7 -28 16 -10 14 -24 10 -123 -40 -98 -49 -207 -96 -222
-96 -3 0 10 10 28 21 17 12 32 25 32 30 0 12 -17 11 -25 -1 -10 -16 -21 -11
-21 10 0 11 4 20 9 20 5 0 7 6 4 14 -4 9 1 17 11 19 12 3 11 5 -5 6 -24 1 -31
17 -12 23 7 2 4 12 -8 26 -15 18 -24 21 -50 16 -18 -4 -33 -11 -33 -16 0 -6
-7 -5 -15 2 -13 11 -14 10 -10 -3 7 -17 -2 -25 -45 -37 -23 -7 -28 -5 -23 6 4
10 0 12 -13 8 -17 -6 -17 -5 1 9 25 21 39 21 31 2 -3 -9 0 -15 9 -15 8 0 13 9
12 20 -1 22 -40 29 -52 10 -5 -8 -11 -7 -21 1 -11 9 -14 7 -14 -12 -1 -21 -2
-22 -11 -6 -5 9 -14 17 -19 17 -5 0 -7 -8 -3 -17 3 -10 3 -15 -2 -11 -4 4 -17
2 -29 -4 -11 -7 -27 -12 -34 -13 -7 0 -17 -7 -22 -15 -5 -8 -10 -11 -10 -7 0
8 -18 -5 -50 -37 -11 -10 -26 -16 -35 -12 -9 3 -18 0 -21 -8 -3 -7 -16 -13
-30 -13 -14 -1 -33 -8 -43 -17 -9 -9 -24 -16 -32 -16 -8 0 -20 -9 -27 -21 -7
-11 -19 -18 -27 -15 -8 3 -12 0 -9 -7 4 -13 -44 -40 -58 -31 -4 3 -20 -4 -34
-15 -15 -12 -23 -21 -19 -21 4 0 2 -7 -6 -16 -8 -10 -23 -14 -41 -12 -15 3
-29 -1 -32 -7 -7 -19 -52 -11 -48 9 4 20 -39 21 -83 2 -19 -8 -39 -10 -55 -5
-14 5 -47 10 -73 12 -27 2 -52 8 -55 13 -4 5 -20 11 -37 13 -16 1 -35 7 -41
12 -6 5 -19 7 -28 3 -9 -3 -16 -1 -16 5 0 6 -7 11 -16 11 -9 0 -12 5 -8 12 5
7 0 9 -14 6 -13 -4 -20 -2 -19 6 1 6 -6 10 -15 8 -10 -2 -18 1 -18 6 0 6 -12
13 -26 16 -28 7 -42 19 -60 51 -6 12 -26 22 -45 25 -30 4 -35 10 -43 42 -8 33
-7 41 14 63 22 24 96 52 107 41 3 -2 22 4 43 15 28 15 48 18 73 14 34 -7 74 6
89 28 3 6 16 12 28 14 12 2 28 10 36 17 16 17 19 56 4 56 -5 0 -10 11 -10 25
0 14 -3 25 -7 25 -8 0 -33 47 -33 62 0 12 -38 48 -51 48 -6 0 -24 9 -40 21
-17 12 -39 19 -49 16 -11 -3 -23 -1 -26 4 -3 5 -11 6 -17 2 -19 -12 -37 -12
-37 -1 0 6 -7 8 -15 4 -11 -4 -15 2 -15 24 0 21 5 30 16 30 9 0 12 -5 8 -12
-4 -7 -3 -8 5 -4 18 12 5 23 -45 37 -26 8 -65 31 -88 51 -34 31 -38 39 -26 48
13 8 12 10 -5 10 -16 1 -14 4 10 16 17 8 22 12 13 9 -12 -3 -18 1 -18 11 0 8
4 13 9 9 5 -3 12 -1 15 3 11 19 439 0 463 -20 7 -6 32 -10 56 -9 116 5 112 4
119 35 7 35 -12 70 -45 81 -12 4 -24 8 -27 9 -20 9 -64 17 -113 20 -32 3 -64
9 -70 14 -26 21 -186 102 -201 102 -9 0 -16 4 -16 9 0 7 -43 25 -46 18 0 -1
-8 4 -17 12 -9 7 -24 11 -32 7 -8 -3 -15 -1 -15 5 0 13 -105 6 -157 -10 -21
-6 -35 -6 -39 0 -3 5 -11 8 -17 7 -7 -2 -37 9 -67 24 -30 14 -64 29 -76 32
-21 7 -130 -35 -198 -75 -33 -19 -36 -20 -36 -3 0 21 77 94 100 94 8 0 22 5
30 11 13 9 12 10 -2 5 -26 -8 -22 3 5 15 44 20 71 38 79 53 5 9 15 16 22 16 8
0 16 7 20 15 3 8 10 15 16 15 17 0 75 63 62 68 -21 7 -13 22 11 21 12 -1 39 6
60 15 20 9 37 13 37 8 0 -17 63 -8 85 12 19 18 35 21 99 20 43 0 79 3 81 6 2
4 27 7 55 9 28 1 64 7 78 13 15 7 34 12 43 13 41 5 44 22 19 91 -11 31 -78 94
-100 94 -6 0 -28 12 -49 26 -47 30 -179 46 -206 24 -10 -8 -15 -9 -15 -2 0 6
-7 9 -16 5 -15 -5 -57 11 -80 32 -145 130 -168 142 -224 111 -14 -8 -38 -12
-56 -9 -26 4 -39 0 -61 -21 -76 -72 -90 -80 -106 -64 -13 11 -11 17 14 40 15
15 29 35 31 44 5 29 59 75 80 68 10 -3 18 0 18 7 0 9 4 8 15 -1 12 -10 15 -9
15 5 0 9 9 30 20 45 16 23 17 29 6 33 -8 3 -17 1 -20 -6 -2 -7 -5 5 -5 26 -1
21 4 37 10 37 6 0 8 7 5 15 -6 16 7 45 34 78 26 33 49 91 38 98 -5 4 -3 9 6
12 9 4 16 13 16 22 0 8 7 15 15 15 9 0 21 12 27 28 7 15 21 38 33 52 12 14 37
50 56 80 19 30 42 63 52 72 9 10 17 25 17 33 0 8 5 15 10 15 6 0 15 11 20 25
5 14 15 24 22 23 6 -2 20 14 30 34 13 27 31 44 69 62 28 13 58 22 65 19 8 -3
14 0 14 6 0 14 47 14 56 0 4 -8 9 -7 15 2 8 12 11 11 22 -1 13 -16 44 -19 65
-7 7 5 12 3 12 -3 0 -7 11 -21 25 -32 14 -11 23 -24 20 -29 -4 -5 1 -9 9 -9 9
0 16 -4 16 -10 0 -11 15 -30 84 -100 27 -27 45 -50 40 -50 -5 0 3 -8 19 -18
15 -10 24 -22 20 -25 -3 -4 -1 -7 5 -7 7 0 25 -13 40 -30 16 -16 37 -30 46
-30 10 0 15 -4 11 -9 -3 -5 5 -11 17 -13 16 -2 22 -9 21 -23 -1 -18 0 -18 18
4 13 16 19 18 19 8 0 -8 7 -20 16 -27 12 -11 15 -11 12 0 -2 8 6 16 17 18 11
2 31 9 45 15 14 6 30 11 35 12 6 0 9 7 7 14 -2 9 3 11 13 7 24 -9 96 5 88 17
-3 6 -1 7 6 3 6 -4 18 -1 26 8 15 15 4 33 -14 22 -5 -3 -14 1 -21 9 -19 23 14
44 70 45 28 0 40 3 32 9 -9 5 8 14 50 26 35 9 71 24 80 32 9 8 21 12 27 9 5
-4 12 -2 16 4 4 6 10 8 15 5 5 -3 30 2 57 11 42 14 58 15 128 4 153 -25 188
-17 143 31 -13 13 -37 42 -53 64 -36 49 -80 95 -92 95 -5 0 -14 5 -21 12 -6 6
-22 13 -34 15 -12 2 -25 9 -30 15 -4 7 -10 9 -14 5 -4 -4 -16 0 -26 10 -10 9
-18 11 -18 5 0 -6 17 -20 38 -31 52 -27 95 -76 79 -89 -20 -15 -64 -7 -197 38
-69 23 -148 49 -176 57 -42 12 -51 19 -47 34 3 11 18 21 39 25 39 7 203 -14
222 -29 15 -12 30 -1 16 12 -10 10 -146 59 -184 67 -14 3 -35 12 -47 20 -12 8
-31 14 -43 14 -11 0 -20 5 -20 10 0 6 -14 10 -32 10 -17 0 -29 3 -25 6 3 4 -4
21 -17 38 -32 42 -39 78 -21 102 8 10 15 29 15 42 0 49 71 94 153 97 35 1 79
10 102 21 22 10 51 18 65 19 18 0 26 6 28 21 2 16 8 20 23 17 13 -4 19 0 19
11 0 9 8 16 18 17 9 1 4 5 -13 9 -16 4 -58 19 -92 33 -35 14 -63 22 -63 19 0
-4 -4 -1 -8 6 -5 7 -17 14 -28 16 -44 9 -181 28 -211 30 -46 4 -74 26 -67 54
4 12 11 22 16 22 5 0 6 -4 3 -10 -4 -6 5 -10 19 -10 16 0 26 6 26 14 0 8 7 17
16 20 13 5 14 9 4 21 -9 11 -10 15 -1 15 8 0 4 12 -9 30 -22 30 -19 56 5 46 7
-2 21 4 31 15 16 17 16 19 1 19 -10 0 -17 5 -17 10 0 6 -7 10 -16 10 -8 0 -13
4 -9 9 3 6 -2 14 -11 19 -11 6 -13 11 -5 16 6 4 11 14 11 22 0 8 -4 12 -10 9
-5 -3 -10 3 -10 15 0 12 5 18 10 15 6 -3 10 -2 10 4 0 5 -5 13 -10 16 -8 5 -7
11 1 21 6 8 8 14 3 14 -4 0 2 10 14 23 12 13 19 27 15 30 -3 4 -2 7 4 7 12 0
53 35 56 47 1 4 5 7 9 6 5 -2 8 2 8 7 0 6 -7 10 -15 10 -8 0 -15 5 -15 10 0 6
7 10 16 10 8 0 13 4 10 9 -7 10 29 53 37 45 6 -6 67 49 67 60 0 3 -7 6 -15 6
-8 0 -15 7 -15 15 0 8 7 15 16 15 11 0 14 6 9 21 -5 13 -2 25 6 29 19 12 -16
43 -40 35 -13 -4 -24 1 -35 17 -9 12 -26 23 -38 23 -18 0 -22 6 -24 37 -2 21
1 40 6 43 5 3 7 -3 5 -13 -2 -11 3 -19 11 -19 10 0 11 4 5 10 -7 7 -7 15 2 26
9 11 9 13 0 8 -6 -4 -14 -3 -18 3 -4 6 -10 8 -15 5 -5 -3 -11 -1 -14 4 -5 8
20 25 34 23 3 0 6 11 6 24 1 13 -3 24 -8 24 -6 0 -7 11 -4 24 3 14 2 28 -4 31
-5 3 -10 15 -10 26 0 10 -7 19 -15 19 -10 0 -15 10 -15 30 0 24 4 30 21 30 11
0 18 -4 15 -9 -3 -5 0 -14 7 -19 9 -8 16 -6 24 8 11 16 7 19 -37 30 -31 7 -50
17 -50 26 0 17 -17 19 -22 2 -6 -17 -28 0 -27 20 0 14 2 13 9 -3 7 -16 9 -17
9 -3 1 9 7 18 14 21 9 3 7 10 -7 25 -10 12 -23 19 -28 16 -6 -4 -7 2 -3 16 6
19 4 22 -9 17 -10 -4 -15 -3 -12 2 8 13 -39 19 -59 8 -13 -7 -16 -5 -13 9 2
11 11 18 21 16 9 -2 17 2 17 8 0 5 -4 10 -10 10 -5 0 -2 15 8 34 13 27 18 30
23 17 5 -13 9 -10 18 13 7 16 9 36 6 43 -3 10 0 13 13 9 20 -7 112 68 112 90
0 8 11 16 25 20 14 4 23 9 21 12 -8 7 50 42 69 42 8 0 15 6 15 14 0 14 39 31
90 41 12 2 25 7 28 10 3 3 17 4 31 4 17 -1 20 -3 9 -6z m-1075 -22 c-2 -6 2
-11 7 -11 6 0 10 -5 10 -11 0 -6 -7 -9 -15 -5 -18 7 -20 -5 -2 -23 10 -10 7
-16 -13 -32 -14 -10 -31 -24 -38 -30 -27 -22 -31 4 -5 37 22 30 25 39 15 54
-9 16 -8 21 6 29 20 12 38 8 35 -8z m461 -50 c3 -5 -1 -11 -9 -14 -9 -4 -12
-1 -8 9 6 16 10 17 17 5z m-2439 -49 c33 -27 98 -86 144 -130 46 -45 88 -82
93 -82 4 0 8 -6 8 -14 0 -7 10 -20 21 -28 13 -8 22 -24 22 -40 0 -20 5 -28 21
-30 26 -4 32 -31 11 -52 -24 -23 -43 -20 -73 14 -15 17 -32 30 -38 30 -7 0
-14 7 -18 15 -3 8 -12 15 -20 15 -9 0 -20 9 -26 20 -6 12 -22 25 -36 30 -13 5
-24 16 -24 25 0 8 -5 15 -10 15 -6 0 -24 14 -42 30 -17 17 -34 30 -39 30 -4 0
-10 9 -14 19 -3 10 -17 22 -30 25 -13 3 -26 14 -30 25 -3 10 -16 23 -30 29
-37 17 -44 60 -14 83 37 28 59 23 124 -29z m2105 -17 c0 -8 -7 -15 -15 -15 -9
0 -12 6 -9 15 4 8 10 15 15 15 5 0 9 -7 9 -15z m280 -15 c0 -5 -5 -10 -11 -10
-5 0 -7 5 -4 10 3 6 8 10 11 10 2 0 4 -4 4 -10z m-280 -14 c0 -3 -4 -8 -10
-11 -5 -3 -10 -1 -10 4 0 6 5 11 10 11 6 0 10 -2 10 -4z m357 -11 c0 -8 -4
-15 -9 -15 -10 0 -11 14 -1 23 9 10 10 9 10 -8z m43 -5 c0 -5 -2 -10 -4 -10
-3 0 -8 5 -11 10 -3 6 -1 10 4 10 6 0 11 -4 11 -10z m-225 -49 c-3 -6 -14 -11
-23 -11 -13 0 -13 2 4 14 21 15 30 14 19 -3z m3285 -112 c6 -10 10 -27 10 -39
0 -32 -42 -23 -54 11 -18 52 19 76 44 28z m-3063 -41 c-3 -8 -6 -5 -6 6 -1 11
2 17 5 13 3 -3 4 -12 1 -19z m590 -64 c-3 -3 -12 -4 -19 -1 -8 3 -5 6 6 6 11
1 17 -2 13 -5z m143 -29 c0 -2 -7 -5 -15 -9 -9 -3 -15 0 -15 9 0 9 6 12 15 9
8 -4 15 -7 15 -9z m130 -115 c0 -5 -7 -10 -15 -10 -8 0 -15 5 -15 10 0 6 7 10
15 10 8 0 15 -4 15 -10z m71 -63 c-16 -16 -20 -5 -8 23 9 22 11 23 14 6 3 -10
0 -23 -6 -29z m722 26 c-7 -2 -19 -2 -25 0 -7 3 -2 5 12 5 14 0 19 -2 13 -5z
m90 -53 c18 0 -38 -27 -70 -34 -15 -3 -35 -2 -43 4 -12 8 -11 10 7 10 12 0 27
9 33 20 6 10 17 17 24 14 8 -3 18 1 22 8 7 10 9 9 12 -4 2 -10 9 -18 15 -18z
m112 0 c-3 -5 -16 -10 -28 -9 -21 0 -21 1 -2 9 28 12 37 12 30 0z m152 -65
c22 -3 49 -13 60 -20 15 -12 8 -12 -42 0 -33 8 -65 14 -71 15 -7 0 -14 7 -18
15 -4 12 -2 13 12 6 9 -5 36 -12 59 -16z m-697 1 c0 -3 -4 -8 -10 -11 -5 -3
-10 -1 -10 4 0 6 5 11 10 11 6 0 10 -2 10 -4z m310 -29 c10 3 21 0 24 -6 4 -6
-1 -12 -11 -13 -89 -7 -107 -3 -78 18 11 8 24 10 33 5 8 -5 23 -6 32 -4z
m-259 -20 c-17 -17 -51 -19 -51 -3 0 16 27 25 48 18 9 -3 10 -8 3 -15z m-241
-161 c0 -3 -4 -8 -10 -11 -5 -3 -10 -1 -10 4 0 6 5 11 10 11 6 0 10 -2 10 -4z
m-3112 -723 c-3 -15 14 -63 23 -63 5 0 9 -7 9 -15 0 -8 -5 -15 -11 -15 -7 0
-9 -10 -5 -26 5 -19 2 -31 -13 -43 -12 -10 -18 -20 -15 -23 10 -11 -20 -58
-38 -58 -15 0 -17 4 -9 18 7 12 7 22 0 29 -6 6 -4 25 6 52 8 24 15 53 15 64 0
27 22 87 32 87 4 0 7 -3 6 -7z m4435 -189 c-6 -15 -13 -17 -36 -8 -14 5 -13 8
1 23 19 20 44 9 35 -15z m-32 -57 c-10 -9 -11 -8 -5 6 3 10 9 15 12 12 3 -3 0
-11 -7 -18z m-4271 -46 c0 -26 -29 -54 -44 -43 -15 11 -75 7 -106 -7 -23 -10
-23 -11 -2 -7 12 2 22 -1 22 -6 0 -6 6 -5 15 2 13 11 15 9 15 -13 0 -18 -8
-28 -30 -37 -40 -17 -45 -27 -24 -51 16 -17 16 -19 1 -19 -10 0 -17 -4 -17 -9
0 -5 -9 -11 -20 -14 -13 -3 -20 0 -20 9 0 8 5 14 10 14 6 0 10 7 10 15 0 8 -4
15 -9 15 -4 0 -8 17 -7 39 1 26 5 37 14 34 6 -3 12 0 12 6 0 6 -5 11 -11 11
-8 0 -7 6 2 17 12 14 12 15 1 9 -11 -7 -12 -4 -3 12 7 13 25 24 49 27 20 4 42
8 47 10 6 2 29 4 53 4 35 1 42 -2 42 -18z m-5 -71 c-3 -5 -11 -10 -16 -10 -6
0 -7 5 -4 10 3 6 11 10 16 10 6 0 7 -4 4 -10z m14 -39 c10 -6 2 -9 -23 -9 -20
0 -36 4 -36 9 0 12 41 11 59 0z m-19 -51 c0 -5 -4 -10 -10 -10 -5 0 -10 5 -10
10 0 6 5 10 10 10 6 0 10 -4 10 -10z m30 -10 c0 -5 -2 -10 -4 -10 -3 0 -8 5
-11 10 -3 6 -1 10 4 10 6 0 11 -4 11 -10z m-186 -65 c16 -12 17 -18 8 -27 -17
-17 -15 -49 3 -42 14 6 29 -29 24 -57 -2 -8 5 -31 14 -53 20 -45 21 -56 6 -56
-8 0 -8 -4 -2 -12 15 -20 32 -96 26 -118 -3 -11 -10 -20 -17 -19 -28 3 -36 -3
-36 -26 0 -16 -4 -23 -13 -19 -10 3 -14 -9 -16 -48 -1 -29 -7 -55 -12 -59 -7
-4 -4 -9 5 -12 9 -4 16 -16 16 -28 0 -16 4 -20 17 -15 10 4 14 4 11 0 -11 -10
11 -44 28 -44 10 0 14 -9 12 -29 -1 -16 4 -36 11 -45 11 -13 11 -17 -3 -22 -9
-3 -16 -12 -16 -20 0 -7 6 -11 14 -8 16 6 29 -33 15 -42 -6 -4 -6 -11 0 -18 8
-10 5 -18 -9 -31 -24 -22 -27 -50 -5 -41 11 4 17 -3 21 -24 4 -16 13 -31 21
-34 8 -4 13 -13 10 -20 -7 -17 15 -38 34 -34 16 4 29 -43 16 -59 -7 -10 -3
-13 13 -13 15 0 20 -4 17 -15 -4 -8 -2 -17 4 -21 5 -3 7 -14 4 -25 -7 -20 9
-27 20 -9 3 6 11 10 17 10 7 0 -1 -13 -16 -29 -23 -24 -25 -29 -11 -35 13 -5
14 -8 3 -20 -7 -8 -16 -12 -20 -9 -5 2 -8 -5 -8 -16 0 -13 7 -21 18 -21 12 0
13 -3 5 -8 -7 -4 -14 -17 -16 -29 -1 -12 -9 -29 -17 -39 -14 -16 -13 -16 5 -8
24 11 65 12 65 2 1 -31 -3 -40 -22 -58 -12 -11 -18 -20 -12 -21 5 0 0 -4 -11
-9 -19 -8 -19 -9 2 -9 16 -1 21 -6 17 -16 -4 -9 -15 -13 -28 -11 -11 2 -16 1
-9 -1 16 -6 12 -43 -4 -44 -28 -3 -32 -4 -45 -16 -16 -17 4 -18 34 -2 29 16
37 0 10 -22 l-23 -18 26 -7 c19 -5 24 -11 20 -24 -4 -12 1 -23 12 -30 15 -9
14 -10 -7 -4 l-25 6 25 -26 c21 -23 22 -29 10 -37 -11 -7 -7 -8 13 -3 31 7 35
-5 9 -29 -10 -9 -27 -14 -39 -11 -11 3 -24 1 -27 -4 -4 -6 2 -8 14 -5 25 7 26
-5 3 -24 -10 -8 0 -5 21 7 35 19 40 20 48 6 5 -9 16 -16 23 -16 22 0 18 -13
-17 -56 -17 -22 -28 -31 -25 -21 5 14 3 18 -11 15 -12 -2 -16 -11 -14 -33 2
-17 8 -31 13 -33 15 -6 10 -22 -6 -22 -14 0 -13 -3 1 -25 9 -14 12 -25 8 -25
-15 0 -34 38 -28 55 3 8 1 15 -6 15 -6 0 -8 5 -4 11 4 7 0 9 -14 5 -12 -4 -26
-1 -35 9 -9 8 -23 12 -31 9 -9 -3 -16 -1 -16 5 0 14 32 15 46 1 6 -6 10 -3 10
11 0 17 -5 20 -29 16 -20 -3 -26 0 -23 10 3 8 -1 16 -9 19 -8 4 -15 10 -15 16
0 5 5 6 10 3 6 -3 17 0 25 9 21 20 19 24 -10 18 -21 -4 -24 -1 -18 13 4 13 3
16 -5 11 -9 -5 -9 -1 -3 17 8 20 7 25 -4 23 -19 -3 -21 -6 -28 -43 -5 -25 -2
-33 11 -36 9 -3 4 -5 -13 -6 -16 -1 -25 -5 -19 -9 14 -9 -2 -72 -19 -72 -7 0
-3 -7 7 -15 20 -15 20 -15 0 -30 -15 -12 -16 -16 -5 -24 10 -7 8 -12 -10 -24
-19 -14 -20 -19 -9 -32 11 -13 10 -15 -2 -10 -10 4 -14 0 -13 -14 1 -11 5 -24
9 -28 4 -4 -3 -16 -16 -26 -13 -10 -17 -16 -10 -12 6 3 12 2 12 -3 0 -5 -10
-14 -22 -20 l-23 -11 22 0 c31 -1 38 -20 11 -30 -17 -7 -19 -10 -5 -10 17 -1
25 -21 8 -21 -5 0 -7 -9 -4 -21 4 -14 -1 -25 -16 -36 -17 -12 -20 -18 -10 -29
8 -10 8 -14 0 -14 -6 0 -11 -9 -11 -20 0 -11 -6 -20 -12 -21 -10 0 -10 -2 0
-6 19 -7 14 -23 -7 -23 -26 0 -34 -15 -16 -30 8 -7 12 -16 9 -21 -3 -5 1 -9 8
-9 8 0 6 -6 -5 -17 -14 -15 -19 -15 -26 -5 -6 10 -10 9 -14 -7 -4 -18 -2 -20
19 -15 13 3 24 2 24 -4 0 -5 -9 -12 -21 -15 -12 -3 -18 -10 -15 -16 4 -6 -7
-17 -24 -26 -22 -12 -30 -12 -28 -3 2 7 10 18 18 25 11 9 12 15 4 23 -9 9 -8
24 3 58 18 61 23 101 12 108 -14 8 -11 24 4 22 8 -2 11 9 10 36 -2 22 2 45 8
52 6 7 7 19 3 25 -4 7 1 18 11 26 17 12 17 13 2 13 -24 0 -21 15 6 28 l22 11
-22 0 c-23 1 -23 4 -6 91 4 19 7 51 8 70 1 19 5 45 9 57 4 13 10 35 12 50 3
16 9 29 14 31 4 2 6 12 3 23 -5 17 -1 38 24 132 3 13 10 16 26 11 22 -6 22 -6
2 9 -11 9 -16 19 -12 23 4 5 12 2 17 -6 6 -8 10 -11 10 -6 0 5 7 3 15 -4 9 -7
14 -19 11 -27 -3 -7 -1 -13 4 -13 5 0 12 9 15 20 3 11 12 20 20 20 7 0 15 11
17 25 3 13 1 22 -4 19 -4 -3 -11 2 -14 10 -3 9 -12 16 -20 16 -8 0 -11 6 -8
15 4 10 0 15 -12 15 -18 1 -18 1 0 12 14 8 24 8 40 -2 19 -12 20 -12 7 3 -7
10 -28 17 -45 18 -17 0 -25 3 -18 6 6 2 10 9 6 14 -3 5 2 16 10 25 27 26 16
47 -12 24 -6 -6 -10 -7 -7 -4 2 4 -1 16 -7 28 -7 11 -11 34 -9 50 2 21 -1 26
-10 20 -9 -5 -10 -2 -6 10 4 10 7 22 7 27 0 6 5 7 10 4 6 -3 10 -1 10 4 0 6
-7 11 -16 11 -13 0 -15 8 -12 35 3 23 -1 36 -10 40 -9 3 -12 14 -7 35 4 17 2
30 -3 30 -5 0 -9 15 -9 34 1 19 -4 41 -11 48 -8 10 -9 24 -3 46 5 18 6 34 2
36 -4 3 -8 21 -9 40 -2 20 -6 45 -10 55 -4 11 -4 82 0 158 3 76 9 201 12 278
3 77 9 178 13 225 3 47 7 108 8 135 3 85 4 86 39 60z m3736 -145 c0 -5 -2 -10
-4 -10 -3 0 -8 5 -11 10 -3 6 -1 10 4 10 6 0 11 -4 11 -10z m-3400 -80 c0 -5
-4 -10 -10 -10 -5 0 -10 5 -10 10 0 6 5 10 10 10 6 0 10 -4 10 -10z m-120 -40
c0 -5 7 -10 16 -10 8 0 12 -5 9 -10 -10 -16 -15 -90 -6 -90 16 0 4 -41 -17
-60 -12 -12 -22 -25 -22 -30 0 -6 -11 -10 -24 -10 -18 0 -31 12 -51 46 -25 43
-28 74 -6 74 5 0 12 -8 14 -17 3 -11 5 -7 6 10 0 15 -4 27 -11 28 -10 0 -10 2
0 6 6 2 12 13 12 23 0 10 10 26 22 34 25 18 58 21 58 6z m-1178 -816 c51 -26
108 -52 128 -59 19 -7 105 -45 190 -85 85 -39 169 -78 185 -85 26 -12 92 -41
275 -123 25 -11 62 -25 83 -32 27 -8 37 -17 37 -32 0 -18 -4 -20 -36 -15 -20
4 -54 17 -75 31 -20 14 -50 28 -66 32 -15 4 -77 31 -138 60 -60 30 -120 54
-133 54 -13 0 -55 19 -94 41 -85 50 -173 86 -232 94 -30 5 -45 13 -51 28 -13
29 -111 76 -173 84 -61 7 -75 15 -66 36 11 30 68 20 166 -29z m875 -506 c-3
-8 -6 -5 -6 6 -1 11 2 17 5 13 3 -3 4 -12 1 -19z m163 13 c0 -6 -4 -13 -10
-16 -5 -3 -10 1 -10 9 0 9 5 16 10 16 6 0 10 -4 10 -9z m180 -18 c0 -29 -12
-29 -26 0 -8 19 -7 23 8 23 12 0 18 -8 18 -23z m46 -278 c-24 -23 -25 -25 -7
-25 11 0 23 -5 26 -10 4 -6 10 -8 15 -5 5 3 4 -9 -2 -27 -9 -24 -8 -33 0 -36
7 -2 12 -8 12 -13 0 -4 -7 -6 -15 -3 -8 4 -22 1 -30 -6 -20 -16 -32 -5 -16 14
10 12 10 19 -2 36 -9 14 -16 17 -19 9 -2 -6 -4 4 -5 23 -1 27 5 37 26 50 39
24 47 21 17 -7z m-114 -52 c-9 -4 -10 -9 -2 -18 8 -9 6 -14 -5 -19 -10 -4 -14
-2 -9 5 4 8 -1 9 -17 5 l-24 -7 24 20 c13 12 28 21 35 20 7 0 6 -3 -2 -6z m33
-73 c3 -5 1 -10 -4 -10 -6 0 -11 5 -11 10 0 6 2 10 4 10 3 0 8 -4 11 -10z m45
0 c0 -5 -4 -10 -10 -10 -5 0 -10 5 -10 10 0 6 5 10 10 10 6 0 10 -4 10 -10z
m24 -30 c-14 -14 -74 -31 -74 -20 0 6 32 18 80 29 2 1 -1 -4 -6 -9z m996 -200
c0 -5 -4 -10 -10 -10 -5 0 -10 5 -10 10 0 6 5 10 10 10 6 0 10 -4 10 -10z
m-86 -25 c3 -9 0 -15 -9 -15 -8 0 -14 -5 -12 -11 1 -6 -10 -16 -25 -21 -21 -7
-31 -5 -47 11 -19 19 -19 20 2 35 29 20 83 21 91 1z m-324 -35 c-20 -13 -40
-13 -40 0 0 6 12 10 28 10 21 0 24 -2 12 -10z m-940 -85 c0 -8 -3 -15 -6 -15
-3 0 -12 7 -20 15 -14 13 -13 15 5 15 12 0 21 -6 21 -15z m-84 -180 c-24 -18
-15 -30 12 -16 24 13 32 14 32 4 0 -8 -47 -33 -62 -33 -10 0 -11 44 -1 53 3 4
13 7 22 7 13 -1 12 -3 -3 -15z m-8 -83 c2 -7 -2 -10 -12 -6 -9 3 -16 11 -16
16 0 13 23 5 28 -10z m-3 -42 c-3 -5 -11 -10 -16 -10 -6 0 -7 5 -4 10 3 6 11
10 16 10 6 0 7 -4 4 -10z m1875 0 c0 -5 -5 -10 -11 -10 -5 0 -7 5 -4 10 3 6 8
10 11 10 2 0 4 -4 4 -10z m-1840 -14 c0 -3 -13 -11 -30 -20 -16 -8 -30 -11
-30 -7 0 4 10 13 23 19 24 12 37 14 37 8z m2684 -481 c8 -8 20 -15 26 -15 23
0 3 -25 -23 -28 -15 -2 -27 -7 -27 -11 0 -5 -15 -12 -32 -16 -29 -7 -30 -9
-10 -12 12 -3 22 -9 22 -15 0 -6 -3 -8 -7 -5 -3 4 -21 -4 -39 -18 -37 -28 -56
-32 -48 -10 4 8 17 18 31 21 18 5 21 9 12 15 -8 5 -23 2 -36 -7 -26 -16 -32
-4 -8 16 8 7 14 19 13 28 -2 8 3 17 11 20 10 3 12 0 8 -12 -4 -9 -2 -16 3 -16
6 0 10 5 10 10 0 6 11 8 25 6 13 -3 28 0 31 6 4 7 2 8 -4 4 -16 -9 -15 7 0 22
9 9 8 12 -5 12 -9 0 -17 5 -17 10 0 15 47 12 64 -5z m-164 -110 c0 -6 -90 -45
-104 -45 -25 0 51 49 77 50 15 0 27 -2 27 -5z m120 -20 c-6 -8 -20 -17 -31
-20 -11 -4 -16 -11 -13 -17 4 -7 2 -8 -4 -4 -16 10 -15 26 2 26 8 0 16 7 20
15 3 8 13 15 22 15 13 0 14 -3 4 -15z m700 -44 c0 -6 20 -8 45 -6 25 3 45 2
45 -1 0 -14 -112 -106 -142 -117 -10 -4 -18 -2 -18 4 0 14 19 31 53 49 16 8
24 16 17 18 -6 2 -17 -1 -23 -7 -6 -6 -23 -11 -38 -11 -49 0 -41 54 11 73 24
9 50 8 50 -2z m-80 -5 c0 -11 -19 -15 -25 -6 -3 5 1 10 9 10 9 0 16 -2 16 -4z
m-855 -16 c3 -6 -1 -13 -10 -16 -19 -8 -30 0 -20 15 8 14 22 14 30 1z m255 1
c0 -11 -26 -21 -53 -20 -21 0 -21 1 -2 8 11 5 23 7 28 4 4 -2 7 1 7 6 0 6 5
11 10 11 6 0 10 -4 10 -9z m410 4 c0 -2 -10 -13 -22 -25 l-22 -20 22 0 c11 0
24 5 27 10 3 6 13 10 22 10 14 0 14 -3 -3 -21 -10 -11 -26 -18 -36 -16 -9 3
-19 0 -21 -6 -1 -5 -19 -11 -38 -12 -19 -2 -51 -12 -72 -24 -37 -21 -38 -21
-27 -1 6 11 17 20 24 20 7 0 29 11 49 24 19 13 38 22 41 18 3 -3 6 1 6 9 0 12
8 19 48 38 1 0 2 -1 2 -4z m-504 -30 c-27 -21 -52 -21 -34 0 7 8 22 14 33 14
20 0 20 0 1 -14z m-56 -25 c0 -12 -33 -30 -55 -30 -14 0 -12 4 6 20 26 21 49
26 49 10z m213 -19 c-10 -2 -24 -8 -30 -13 -16 -13 -17 -3 -1 21 9 15 15 17
30 7 18 -10 18 -11 1 -15z m-298 9 c-3 -5 -12 -10 -18 -10 -7 0 -6 4 3 10 19
12 23 12 15 0z m-11 -27 c10 4 16 1 16 -7 0 -8 9 -16 21 -19 30 -8 15 -26 -19
-22 -15 2 -33 -2 -40 -7 -9 -8 -11 -7 -5 7 5 15 3 17 -12 11 -18 -7 -18 -6 1
15 19 22 19 22 -3 17 -20 -5 -21 -4 -12 14 10 18 11 19 23 2 8 -10 20 -15 30
-11z m696 17 c0 -13 -28 -26 -72 -34 -21 -4 -38 -11 -38 -15 0 -5 -12 -11 -27
-13 -16 -3 -37 -9 -48 -13 -19 -8 -19 -8 -2 12 15 17 84 44 122 48 6 0 19 6
30 13 25 14 35 15 35 2z m-385 -40 c-3 -5 -13 -10 -21 -10 -8 0 -12 5 -9 10 3
6 13 10 21 10 8 0 12 -4 9 -10z m405 -18 l20 -21 -22 -15 c-12 -9 -34 -16 -49
-16 -29 0 -57 -24 -40 -34 5 -4 12 -2 16 4 3 5 22 10 41 10 24 0 34 5 34 15 0
8 9 15 20 15 13 0 18 -5 14 -15 -4 -8 -1 -15 5 -15 17 0 13 -17 -5 -24 -9 -4
-23 -1 -30 5 -13 11 -38 3 -30 -10 3 -4 -10 -5 -29 -3 -18 2 -43 -1 -55 -8
-26 -14 -42 -3 -19 14 9 6 18 20 20 31 3 13 14 21 32 23 15 2 27 7 27 12 0 5
8 11 18 14 9 3 1 3 -18 0 -19 -3 -44 -6 -55 -8 -11 -1 -30 -8 -42 -14 -26 -14
-73 -16 -73 -3 0 11 29 23 40 16 8 -5 61 14 70 26 7 9 63 26 77 24 7 0 22 -11
33 -23z m-790 7 c0 -6 -9 -13 -20 -16 -19 -5 -19 -6 -3 -18 15 -11 14 -14 -11
-30 -14 -10 -29 -15 -32 -12 -3 3 -17 2 -30 -3 -17 -7 -24 -6 -24 3 0 6 -7 3
-15 -7 -20 -27 -28 -15 -9 12 8 12 23 22 32 22 22 1 73 39 52 40 -13 0 -13 1
0 10 20 13 60 13 60 -1z m220 4 c0 -2 -12 -15 -27 -29 l-28 -24 30 6 30 5 -32
-17 c-18 -9 -33 -21 -33 -26 0 -15 31 -21 43 -9 14 14 37 14 37 1 0 -12 -36
-27 -81 -35 -28 -5 -30 -3 -24 16 7 21 7 21 -18 3 -14 -11 -23 -21 -22 -24 2
-4 -5 -11 -16 -18 -11 -7 -19 -8 -19 -2 0 5 5 10 10 10 6 0 10 11 10 24 0 13
7 27 16 30 10 4 13 13 9 25 -5 16 -2 19 14 16 13 -2 25 3 31 16 7 13 7 19 0
19 -5 0 -10 4 -10 10 0 5 18 9 40 8 22 -1 40 -3 40 -5z m86 -31 c-22 -5 -30 3
-21 18 5 8 11 7 22 -2 15 -12 14 -13 -1 -16z m138 16 c-5 -8 -2 -9 12 -3 46
19 72 18 85 -6 7 -13 12 -34 10 -46 -1 -14 5 -23 20 -28 14 -5 18 -10 10 -15
-13 -8 -6 -55 12 -78 5 -7 11 -23 12 -36 2 -13 11 -36 20 -50 21 -31 55 -53
55 -35 0 7 9 9 24 5 14 -3 28 -2 31 4 9 15 38 12 32 -2 -2 -7 -10 -12 -16 -10
-15 3 -14 -15 2 -21 9 -3 9 -7 -2 -20 -12 -15 -11 -17 7 -17 20 0 23 14 9 38
-11 17 3 15 24 -4 16 -15 17 -14 12 5 -3 12 -9 21 -14 21 -20 0 -7 16 23 29
48 22 89 24 82 6 -4 -8 -1 -15 5 -15 6 0 8 -6 5 -14 -3 -9 3 -17 15 -21 31 -9
15 -25 -25 -25 -19 0 -34 -5 -34 -10 0 -6 -11 -8 -25 -6 -14 3 -25 0 -25 -5 0
-6 -4 -8 -8 -5 -7 4 -8 -6 -3 -46 1 -9 41 3 41 13 0 5 7 6 15 3 10 -4 13 -13
10 -25 -8 -23 -7 -23 46 1 45 20 119 27 119 11 0 -11 -60 -51 -129 -86 -30
-14 -75 -42 -101 -60 -57 -40 -151 -90 -164 -87 -4 2 -19 -5 -33 -13 -14 -9
-27 -14 -31 -11 -3 3 0 6 6 6 7 0 12 4 12 8 0 23 119 130 162 146 26 10 54 26
62 35 14 15 12 17 -24 15 -22 0 -45 -6 -52 -12 -7 -5 -30 -13 -50 -17 -21 -4
-36 -12 -35 -18 1 -6 -13 -20 -31 -31 -18 -12 -55 -36 -82 -54 -27 -17 -54
-32 -60 -32 -5 0 -10 -3 -10 -7 0 -10 -65 -40 -104 -49 -21 -5 -27 -3 -24 6 7
21 -27 49 -51 43 -11 -3 -35 0 -52 6 -27 9 -39 7 -82 -15 -49 -24 -52 -25 -67
-7 -8 11 -28 25 -45 33 -34 16 -65 44 -65 59 0 6 12 13 28 17 15 3 31 7 36 8
5 1 -12 13 -38 26 -39 21 -49 23 -66 12 -24 -14 -64 -16 -55 -2 3 6 -2 10 -12
10 -10 0 -35 16 -55 35 -23 23 -42 33 -52 29 -9 -3 -16 -1 -16 4 0 14 10 20
48 27 81 14 100 36 62 70 -14 12 -18 25 -14 41 5 20 2 24 -16 24 -12 0 -18 4
-15 10 4 6 1 17 -5 25 -7 8 -9 15 -6 15 4 0 0 7 -8 16 -9 8 -14 19 -12 23 7
11 66 1 66 -11 0 -6 17 -8 45 -4 47 7 60 -4 28 -23 -10 -6 -14 -11 -10 -11 5
0 20 9 34 19 19 16 30 18 49 10 14 -5 37 -6 52 -3 l27 6 -25 -21 -25 -21 28
10 c23 8 27 7 28 -8 1 -15 2 -15 6 1 3 11 11 16 19 13 10 -4 14 2 14 19 0 17
-6 25 -17 25 -16 0 -16 1 -1 17 14 13 20 14 32 3 12 -9 19 -10 30 -1 8 6 18
11 22 10 15 -2 54 13 54 21 0 13 39 19 43 7 2 -7 24 3 53 24 27 19 58 38 68
42 10 4 16 10 14 13 -3 3 -23 -2 -43 -10 -45 -19 -61 -20 -43 -3 39 36 130 65
112 35z m-373 -52 c-5 -6 -8 -22 -4 -34 6 -25 -24 -43 -37 -22 -4 7 -22 13
-39 15 -44 4 -45 8 -11 29 26 15 30 15 30 2 0 -18 9 -20 30 -6 12 7 12 10 1
10 -8 0 -5 9 10 25 19 19 25 21 27 9 2 -8 -1 -21 -7 -28z m-211 27 c0 -2 -7
-11 -15 -19 -13 -14 -16 -14 -22 1 -5 15 -8 15 -25 -6 -18 -22 -15 -8 3 16 7
10 59 17 59 8z m420 -38 c-7 -9 -15 -13 -19 -10 -3 3 1 10 9 15 21 14 24 12
10 -5z m367 -1 c-3 -3 -12 -4 -19 -1 -8 3 -5 6 6 6 11 1 17 -2 13 -5z m-1387
-48 c0 -22 -29 -41 -42 -28 -8 8 -8 15 2 27 16 19 40 20 40 1z m1495 -15 c-16
-15 -48 -17 -52 -3 -3 8 6 12 28 12 20 0 29 -4 24 -9z m-2280 -82 c-1 -39 -8
-65 -19 -78 -23 -25 -67 -36 -77 -19 -7 10 -9 10 -9 1 0 -7 -7 -13 -15 -13 -8
0 -15 -4 -15 -10 0 -5 -9 -10 -20 -10 -28 0 -25 13 10 38 17 13 30 27 30 33 0
6 13 21 29 35 16 14 35 40 41 58 8 26 15 33 29 29 16 -4 18 -14 16 -64z m2686
32 c-26 -17 9 -23 41 -7 41 21 46 20 22 -2 -31 -30 -74 -55 -81 -49 -3 4 -14
-5 -25 -18 -11 -14 -26 -25 -34 -25 -22 0 -16 20 9 29 24 9 66 51 51 51 -5 0
-22 -7 -38 -15 -32 -17 -42 -14 -33 10 4 9 19 15 36 15 16 0 33 5 36 10 3 6
12 10 18 10 8 0 8 -3 -2 -9z m-1855 -153 c-42 -87 -102 -198 -114 -210 -14
-14 -50 -1 -63 23 -9 17 -4 28 33 69 24 26 70 80 103 118 33 38 61 66 63 61 2
-5 -8 -32 -22 -61z m202 -58 c-3 -22 -1 -27 7 -20 9 7 12 0 13 -25 1 -31 -3
-37 -39 -56 -24 -12 -39 -26 -36 -33 3 -8 -14 -19 -49 -31 -55 -19 -83 -14
-51 9 22 17 22 22 0 28 -15 4 -18 17 -18 73 l0 69 39 3 c21 1 41 4 44 8 3 3
25 5 50 5 43 0 44 -1 40 -30z m-2002 5 c-20 -15 -36 -19 -36 -10 0 5 38 23 50
24 3 0 -4 -6 -14 -14z m-46 -15 c0 -5 -7 -10 -16 -10 -8 0 -12 5 -9 10 3 6 10
10 16 10 5 0 9 -4 9 -10z m553 -61 c7 -1 15 -1 20 0 4 0 7 -6 7 -15 0 -10 6
-14 14 -11 7 3 23 -1 34 -9 16 -11 22 -11 26 -1 5 9 7 9 12 0 3 -7 11 -10 18
-7 8 3 16 -4 19 -15 3 -13 17 -22 41 -26 20 -4 36 -11 36 -16 0 -5 16 -9 35
-7 19 1 35 6 35 11 0 4 4 5 10 2 8 -5 48 2 114 22 16 4 15 1 -6 -20 -14 -14
-34 -47 -44 -74 -9 -26 -23 -55 -29 -63 -11 -14 -27 -60 -30 -85 -1 -5 -7 -28
-15 -50 -14 -42 -21 -78 -21 -106 0 -9 -12 -27 -26 -40 -21 -21 -35 -24 -106
-25 -83 -1 -101 -4 -172 -22 -40 -11 -83 -10 -188 3 -64 8 -64 2 -1 114 24 41
41 78 38 83 -8 13 11 9 25 -4 11 -11 13 -10 9 2 -3 8 -1 23 4 33 8 16 7 18
-14 12 -20 -5 -20 -4 -5 5 24 15 34 6 32 -29 -1 -21 2 -28 9 -23 32 24 68 4
71 -38 0 -10 9 -14 23 -12 19 2 22 -2 17 -17 -3 -11 -2 -22 3 -25 6 -3 12 8
14 25 4 28 3 30 -19 26 -24 -4 -34 18 -11 25 8 3 3 15 -14 33 -15 16 -25 32
-22 37 3 4 -1 8 -8 8 -24 0 -38 21 -28 41 7 11 7 20 0 24 -5 3 -10 2 -10 -3 0
-13 -26 -11 -28 2 -7 41 -8 123 -2 131 4 6 7 17 7 26 0 8 10 36 23 62 19 38
27 46 43 41 15 -5 18 -3 12 7 -4 8 2 4 14 -8 12 -13 27 -24 34 -24z m-533 -8
c-8 -5 -26 -12 -39 -16 -20 -6 -22 -5 -11 7 8 8 25 15 39 16 19 1 22 -1 11 -7z
m-70 -25 c0 -3 -4 -8 -10 -11 -5 -3 -10 -1 -10 4 0 6 5 11 10 11 6 0 10 -2 10
-4z m128 -28 c-4 -13 -75 -57 -90 -58 -21 0 -4 21 26 34 18 8 37 19 40 25 10
15 29 14 24 -1z m1952 8 c0 -3 -4 -8 -10 -11 -5 -3 -10 -1 -10 4 0 6 5 11 10
11 6 0 10 -2 10 -4z m-1966 -87 c-7 -12 -186 -100 -192 -94 -11 10 21 43 42
43 13 0 37 8 53 19 44 31 110 53 97 32z m1928 -51 c-7 -7 -12 -8 -12 -2 0 14
12 26 19 19 2 -3 -1 -11 -7 -17z m-1942 -6 c0 -12 -28 -48 -33 -42 -8 8 11 50
23 50 5 0 10 -4 10 -8z m1240 -40 c0 -12 -23 -32 -37 -32 -7 0 -13 5 -13 11 0
6 7 9 15 5 9 -3 15 0 15 9 0 8 5 15 10 15 6 0 10 -4 10 -8z m1670 -26 c0 -2
-8 -10 -17 -17 -16 -13 -17 -12 -4 4 13 16 21 21 21 13z m45 -6 c-3 -5 -12
-10 -18 -10 -7 0 -6 4 3 10 19 12 23 12 15 0z m-35 -35 c0 -8 -4 -15 -8 -15
-4 0 -14 -15 -20 -34 -17 -45 -30 -55 -85 -61 -39 -5 -45 -3 -43 12 3 16 129
111 149 113 4 0 7 -7 7 -15z m-1820 -200 c0 -43 -54 -101 -71 -74 -5 8 4 27
23 51 31 40 48 48 48 23z m-8 -87 c-7 -7 -12 -8 -12 -2 0 14 12 26 19 19 2 -3
-1 -11 -7 -17z m-752 -92 c0 -2 -7 -7 -16 -10 -8 -3 -12 -2 -9 4 6 10 25 14
25 6z"/>
<path d="M3530 6945 c0 -14 -3 -15 -15 -5 -11 9 -17 9 -29 -3 -13 -12 -11 -14
15 -15 29 -1 50 21 35 35 -3 4 -6 -2 -6 -12z"/>
<path d="M3475 6890 c-4 -6 -11 -8 -16 -5 -5 4 -9 1 -9 -4 0 -16 16 -13 30 4
7 8 10 15 7 15 -3 0 -9 -5 -12 -10z"/>
<path d="M4060 6795 c0 -8 4 -15 10 -15 5 0 7 7 4 15 -4 8 -8 15 -10 15 -2 0
-4 -7 -4 -15z"/>
<path d="M4030 6775 c-9 -11 -10 -19 -3 -26 8 -8 13 -5 18 11 9 28 2 35 -15
15z"/>
<path d="M4106 6721 c-3 -5 1 -14 8 -20 18 -15 28 0 10 16 -7 7 -15 9 -18 4z"/>
<path d="M4197 6553 c-12 -12 -7 -22 8 -17 8 4 15 10 15 15 0 11 -14 12 -23 2z"/>
<path d="M3900 6399 c0 -5 5 -7 10 -4 6 3 10 8 10 11 0 2 -4 4 -10 4 -5 0 -10
-5 -10 -11z"/>
<path d="M4324 6370 c0 -11 6 -15 18 -12 10 2 18 10 18 18 0 7 -8 12 -18 11
-10 0 -18 -8 -18 -17z"/>
<path d="M4147 6313 c-26 -13 -56 -32 -66 -42 -18 -18 -18 -19 4 -31 17 -9 28
-9 45 0 12 6 28 9 36 6 8 -3 14 1 14 10 0 9 9 28 20 44 11 15 17 30 13 34 -8
8 -10 7 -66 -21z"/>
<path d="M4390 6293 c0 -4 5 -15 10 -23 8 -13 10 -13 10 2 0 9 -4 20 -10 23
-5 3 -10 3 -10 -2z"/>
<path d="M4350 6271 c0 -5 7 -12 16 -15 22 -9 24 -8 24 9 0 8 -9 15 -20 15
-11 0 -20 -4 -20 -9z"/>
<path d="M4310 6244 c0 -11 5 -14 16 -10 9 3 20 6 25 6 6 0 7 5 4 10 -10 16
-45 12 -45 -6z"/>
<path d="M4000 6224 c0 -37 62 -36 68 1 1 6 -10 11 -23 12 -14 1 -25 -4 -25
-10 0 -7 -4 -6 -10 3 -8 12 -10 11 -10 -6z"/>
<path d="M4268 6233 c7 -3 16 -2 19 1 4 3 -2 6 -13 5 -11 0 -14 -3 -6 -6z"/>
<path d="M4384 6216 c-38 -21 -54 -38 -54 -57 0 -20 15 -25 25 -9 3 6 14 10
24 10 24 0 60 30 44 36 -7 3 -9 12 -6 20 6 16 -4 17 -33 0z m11 -26 c-3 -5
-16 -10 -28 -10 -18 0 -19 2 -7 10 20 13 43 13 35 0z"/>
<path d="M4077 6204 c-8 -8 1 -24 14 -24 5 0 9 7 9 15 0 15 -12 20 -23 9z"/>
<path d="M4485 6150 c-3 -5 1 -10 10 -10 9 0 13 5 10 10 -3 6 -8 10 -10 10 -2
0 -7 -4 -10 -10z"/>
<path d="M4187 6133 c-13 -13 -7 -21 13 -16 11 3 17 9 14 14 -6 11 -18 12 -27
2z"/>
<path d="M4455 6090 c3 -5 8 -10 11 -10 2 0 4 5 4 10 0 6 -5 10 -11 10 -5 0
-7 -4 -4 -10z"/>
<path d="M4383 6073 c-21 -4 -41 -33 -23 -33 6 0 10 4 10 9 0 5 9 11 20 14 11
3 20 1 20 -4 0 -5 -5 -9 -12 -9 -9 0 -9 -3 1 -12 10 -11 15 -9 27 6 12 17 14
18 14 3 0 -9 5 -17 10 -17 20 0 10 38 -12 44 -13 3 -25 5 -28 5 -3 -1 -15 -4
-27 -6z"/>
<path d="M4001 6014 c0 -11 3 -14 6 -6 3 7 2 16 -1 19 -3 4 -6 -2 -5 -13z"/>
<path d="M4086 5960 c-3 -8 -9 -22 -12 -30 -4 -9 2 -7 17 6 13 12 33 26 44 33
18 10 17 11 -12 9 -18 -1 -34 -9 -37 -18z"/>
<path d="M4728 5863 c7 -3 16 -2 19 1 4 3 -2 6 -13 5 -11 0 -14 -3 -6 -6z"/>
<path d="M5443 5779 c-6 -6 -9 -18 -6 -25 7 -19 33 -18 33 1 0 9 6 12 15 9 8
-4 15 -2 15 4 0 9 -22 22 -39 22 -4 0 -12 -5 -18 -11z"/>
<path d="M5350 5740 c0 -5 6 -10 13 -10 8 0 7 -3 -3 -10 -8 -5 -12 -11 -9 -14
3 -3 14 0 24 8 18 13 18 14 -3 25 -14 8 -22 8 -22 1z"/>
<path d="M4730 5705 c0 -8 5 -15 10 -15 6 0 10 7 10 15 0 8 -4 15 -10 15 -5 0
-10 -7 -10 -15z"/>
<path d="M4670 5690 c20 -13 33 -13 25 0 -3 6 -14 10 -23 10 -15 0 -15 -2 -2
-10z"/>
<path d="M4654 5645 c-14 -14 -29 -25 -33 -25 -5 0 -6 -11 -3 -25 2 -14 11
-25 18 -25 8 0 14 -5 14 -11 0 -5 5 -7 10 -4 8 5 8 11 0 20 -8 10 -8 16 2 22
7 4 13 14 14 21 1 6 2 18 3 26 0 8 9 17 19 19 16 4 16 5 -1 6 -10 0 -29 -10
-43 -24z"/>
<path d="M4770 5612 c0 -5 -12 -13 -27 -17 -21 -5 -24 -8 -12 -16 12 -8 12
-10 -1 -19 -13 -8 -12 -11 5 -25 17 -14 17 -16 3 -11 -12 3 -18 0 -18 -10 0
-8 -4 -13 -9 -9 -6 3 -13 -1 -18 -9 -4 -8 -11 -15 -15 -15 -5 -1 -11 -1 -15
-2 -5 0 1 -4 12 -9 18 -8 18 -9 -5 -10 -23 -1 -23 -2 -5 -10 19 -8 19 -9 -2
-9 -17 -1 -23 -7 -23 -23 0 -19 -2 -20 -10 -8 -5 8 -10 11 -10 5 0 -5 -4 -3
-10 5 -7 12 -10 11 -15 -5 -4 -11 -11 -28 -16 -37 -15 -28 -12 -43 6 -28 9 7
15 8 15 2 0 -5 -8 -13 -17 -16 -12 -5 -13 -10 -5 -18 8 -8 8 -14 -4 -22 -10
-8 -16 -35 -18 -86 -2 -41 -7 -92 -11 -112 -6 -32 -3 -41 20 -63 14 -15 24
-32 22 -38 -2 -7 3 -18 12 -25 14 -12 13 -13 -6 -9 -15 4 -23 0 -23 -9 0 -21
26 -17 70 12 32 21 46 25 77 19 34 -5 39 -10 41 -35 1 -15 -3 -41 -9 -57 -7
-15 -13 -32 -14 -38 -2 -5 -6 -22 -10 -36 -4 -15 -3 -29 2 -32 15 -9 112 37
124 60 12 22 40 36 72 36 10 0 43 22 73 49 53 49 68 73 39 62 -10 -4 -15 0
-14 12 1 23 17 64 18 46 1 -10 4 -10 16 2 16 16 20 36 7 36 -4 0 -12 -4 -18
-10 -5 -5 -15 -6 -24 0 -12 8 -10 14 15 40 16 16 34 30 40 30 7 0 17 11 23 25
6 14 18 25 26 25 9 0 13 6 10 14 -8 20 -60 13 -89 -12 l-25 -22 0 21 c0 15 5
19 16 15 8 -3 13 -2 9 3 -7 12 24 43 35 36 4 -3 13 1 19 9 10 12 5 13 -30 10
-24 -2 -55 -11 -70 -18 -26 -13 -29 -12 -34 4 -3 11 -12 17 -20 14 -17 -7 -30
14 -31 50 0 23 -5 30 -22 31 -28 2 -53 25 -34 32 6 3 12 13 12 23 0 10 5 22
10 25 6 4 8 15 5 26 -4 11 -2 19 4 19 6 0 11 9 11 20 0 11 -4 20 -10 20 -5 0
-7 -7 -3 -16 5 -14 3 -15 -15 -5 -12 7 -22 9 -22 6 0 -4 -12 3 -27 15 -26 20
-28 20 -34 3 -5 -16 -7 -15 -19 7 -9 17 -9 25 -2 28 6 2 8 11 5 19 -5 12 -2
15 10 10 21 -8 22 6 2 23 -9 7 -15 8 -15 2z m85 -131 c-9 -8 -36 -10 -30 -2 2
4 11 8 20 8 8 0 13 -3 10 -6z m-173 -63 c-9 -9 -15 -9 -24 0 -9 9 -7 12 12 12
19 0 21 -3 12 -12z"/>
<path d="M3875 5602 c3 -3 0 -10 -5 -17 -7 -8 -5 -12 5 -12 8 0 13 3 10 5 -3
3 0 10 5 17 7 8 5 12 -5 12 -8 0 -13 -3 -10 -5z"/>
<path d="M4846 5565 c-3 -9 -10 -14 -15 -11 -11 7 -9 -20 2 -31 4 -4 15 -8 23
-9 9 -1 13 0 10 3 -3 4 -2 11 3 17 6 7 4 18 -4 29 -11 16 -13 16 -19 2z m12
-21 c-1 -5 -9 -9 -16 -10 -10 -2 -11 1 -1 12 12 14 24 13 17 -2z"/>
<path d="M5212 5548 c5 -15 28 -23 28 -10 0 5 -7 13 -16 16 -10 4 -14 1 -12
-6z"/>
<path d="M4615 5528 c-9 -22 -3 -61 11 -65 6 -2 11 3 11 12 0 8 -5 15 -11 15
-8 0 -8 3 0 8 7 4 8 15 4 27 -7 18 -9 18 -15 3z"/>
<path d="M5098 5521 c-33 -33 -18 -53 22 -31 12 6 16 17 13 30 -6 24 -13 24
-35 1z"/>
<path d="M4070 5465 c-69 -20 -100 -33 -100 -45 0 -8 6 -8 20 0 11 6 20 8 20
5 0 -7 80 25 105 42 23 16 15 15 -45 -2z"/>
<path d="M4986 5367 c-7 -28 -2 -31 23 -15 26 16 27 24 2 31 -14 3 -21 -2 -25
-16z"/>
<path d="M4935 5319 c-4 -6 -5 -12 -2 -15 2 -3 7 2 10 11 7 17 1 20 -8 4z"/>
<path d="M5080 5316 c0 -2 8 -10 18 -17 15 -13 16 -12 3 4 -13 16 -21 21 -21
13z"/>
<path d="M5365 5310 c-3 -5 -1 -10 4 -10 6 0 11 5 11 10 0 6 -2 10 -4 10 -3 0
-8 -4 -11 -10z"/>
<path d="M5142 5248 c-8 -8 -8 -17 -1 -30 5 -10 7 -23 4 -28 -10 -16 39 -7 52
10 18 21 16 35 -2 20 -13 -11 -14 -10 -9 3 7 20 -28 41 -44 25z m28 -18 c0 -5
-4 -10 -10 -10 -5 0 -10 5 -10 10 0 6 5 10 10 10 6 0 10 -4 10 -10z"/>
<path d="M5216 5235 c4 -8 8 -15 10 -15 2 0 4 7 4 15 0 8 -4 15 -10 15 -5 0
-7 -7 -4 -15z"/>
<path d="M5664 4362 c-33 -17 -114 -87 -114 -98 0 -3 9 -3 20 1 13 4 23 0 32
-14 7 -12 19 -21 27 -21 8 0 12 -3 8 -6 -3 -4 5 -26 18 -49 13 -24 21 -47 17
-51 -4 -5 2 -2 12 6 18 14 18 13 11 -9 -5 -16 -4 -21 4 -17 6 4 11 2 11 -4 0
-17 28 -42 34 -31 4 5 0 12 -6 14 -10 4 -9 8 2 16 11 8 15 35 16 123 1 107 0
114 -23 136 -28 26 -29 26 -69 4z"/>
<path d="M5305 4037 c-27 -29 -30 -38 -29 -96 1 -52 4 -65 20 -73 10 -6 25
-18 32 -26 8 -11 29 -16 59 -17 41 0 46 3 50 24 5 34 13 40 13 10 0 -18 2 -21
9 -10 6 9 6 22 0 33 -7 13 -6 16 3 13 8 -3 13 4 13 20 0 14 -6 25 -12 25 -7 0
-13 5 -13 10 0 6 -7 10 -16 10 -12 0 -14 3 -6 13 9 10 6 17 -8 27 -11 8 -20
18 -20 22 0 15 -35 48 -50 48 -8 0 -29 -15 -45 -33z"/>
<path d="M2560 3570 c-9 -6 -10 -10 -3 -10 6 0 15 5 18 10 8 12 4 12 -15 0z"/>
<path d="M5020 1930 c-9 -6 -10 -10 -3 -10 6 0 15 5 18 10 8 12 4 12 -15 0z"/>
<path d="M5001 1841 c-7 -5 -9 -11 -4 -14 5 -3 15 -2 22 2 7 5 9 11 4 14 -5 3
-15 2 -22 -2z"/>
<path d="M4075 1770 c-3 -5 -1 -10 4 -10 6 0 11 5 11 10 0 6 -2 10 -4 10 -3 0
-8 -4 -11 -10z"/>
<path d="M4560 1763 c0 -17 8 -16 26 1 12 13 12 15 -6 13 -11 -1 -20 -7 -20
-14z"/>
<path d="M5465 1319 c-10 -15 3 -25 16 -12 7 7 7 13 1 17 -6 3 -14 1 -17 -5z"/>
<path d="M5040 1191 c0 -6 5 -13 10 -16 6 -3 10 1 10 9 0 9 -4 16 -10 16 -5 0
-10 -4 -10 -9z"/>
<path d="M5000 1180 c-8 -5 -10 -10 -5 -10 6 0 17 5 25 10 8 5 11 10 5 10 -5
0 -17 -5 -25 -10z"/>
<path d="M5039 1133 c-13 -16 -12 -17 4 -4 16 13 21 21 13 21 -2 0 -10 -8 -17
-17z"/>
<path d="M4950 1105 l-25 -14 28 -1 c17 0 27 5 27 15 0 18 1 18 -30 0z"/>
<path d="M5045 1090 c3 -5 11 -10 16 -10 6 0 7 5 4 10 -3 6 -11 10 -16 10 -6
0 -7 -4 -4 -10z"/>
<path d="M5210 1065 c0 -8 7 -15 15 -15 8 0 15 7 15 15 0 8 -7 15 -15 15 -8 0
-15 -7 -15 -15z"/>
<path d="M3125 6820 c3 -5 8 -10 11 -10 2 0 4 5 4 10 0 6 -5 10 -11 10 -5 0
-7 -4 -4 -10z"/>
<path d="M1620 3619 c0 -5 5 -7 10 -4 6 3 10 8 10 11 0 2 -4 4 -10 4 -5 0 -10
-5 -10 -11z"/>
<path d="M1859 3327 c-8 -7 -18 -21 -22 -32 -6 -17 -5 -18 5 -5 7 9 22 15 33
13 11 -1 14 0 8 3 -22 10 -14 26 8 19 15 -5 19 -4 15 4 -9 14 -27 14 -47 -2z"/>
<path d="M1790 3106 c0 -9 30 -14 35 -6 4 6 -3 10 -14 10 -12 0 -21 -2 -21 -4z"/>
<path d="M1785 3070 c3 -5 8 -10 11 -10 2 0 4 5 4 10 0 6 -5 10 -11 10 -5 0
-7 -4 -4 -10z"/>
<path d="M1722 3050 c-15 -25 -8 -39 18 -37 13 1 16 5 9 13 -5 6 -7 19 -3 28
9 23 -9 20 -24 -4z"/>
<path d="M1940 2781 c0 -5 7 -15 17 -22 15 -13 15 -12 4 9 -12 23 -21 28 -21
13z"/>
<path d="M3926 1222 c-3 -5 1 -9 9 -9 8 0 12 4 9 9 -3 4 -7 8 -9 8 -2 0 -6 -4
-9 -8z"/>
<path d="M4715 920 c-8 -13 5 -13 25 0 13 8 13 10 -2 10 -9 0 -20 -4 -23 -10z"/>
<path d="M4565 870 c-3 -6 1 -7 9 -4 18 7 21 14 7 14 -6 0 -13 -4 -16 -10z"/>
<path d="M4606 775 c-11 -8 -28 -15 -38 -15 -10 0 -18 -4 -18 -10 0 -6 9 -6
23 -1 12 5 25 9 30 10 31 4 56 15 51 22 -8 13 -26 11 -48 -6z"/>
<path d="M3065 740 c-3 -5 -1 -10 4 -10 6 0 11 5 11 10 0 6 -2 10 -4 10 -3 0
-8 -4 -11 -10z"/>
<path d="M1800 360 c0 -5 5 -10 10 -10 6 0 10 5 10 10 0 6 -4 10 -10 10 -5 0
-10 -4 -10 -10z"/>
<path d="M1918 302 c-16 -3 -16 -5 -2 -27 9 -13 13 -29 9 -35 -3 -6 3 -10 14
-10 12 0 21 5 21 11 0 5 -4 8 -8 5 -5 -3 -9 8 -10 25 -1 36 -1 37 -24 31z"/>
<path d="M4199 373 c-13 -15 -12 -15 9 -4 23 12 28 21 13 21 -5 0 -15 -7 -22
-17z"/>
<path d="M3590 240 c0 -5 5 -10 10 -10 6 0 10 5 10 10 0 6 -4 10 -10 10 -5 0
-10 -4 -10 -10z"/>
<path d="M3640 190 c0 -5 4 -10 9 -10 6 0 13 5 16 10 3 6 -1 10 -9 10 -9 0
-16 -4 -16 -10z"/>
<path d="M4143 167 c-4 -8 -37 -33 -73 -57 -36 -24 -67 -47 -70 -51 -3 -4 -28
-19 -55 -33 l-50 -25 50 -1 c45 0 57 5 115 50 36 28 82 62 103 76 32 21 36 28
27 40 -15 18 -37 18 -47 1z"/>
<path d="M2758 43 l-42 -43 237 0 c161 0 237 3 237 11 0 6 -9 8 -22 3 -20 -6
-21 -5 -9 10 15 18 8 21 -20 6 -11 -6 -25 -8 -31 -4 -6 4 -43 9 -82 11 -120 7
-177 19 -170 37 3 8 -6 13 -25 13 -22 0 -41 -12 -73 -44z"/>
<path d="M3208 3 c7 -3 16 -2 19 1 4 3 -2 6 -13 5 -11 0 -14 -3 -6 -6z"/>
</g>
</svg>
